<svg width="86" height="88" viewBox="0 0 86 88" fill="none" xmlns="http://www.w3.org/2000/svg">
<path d="M38.6268 51.3695L30.1732 54.5257L16.5262 78.1631L26.4732 83.906L40.1202 60.2686L38.6268 51.3695Z" fill="#FAE58B"/>
<path d="M56.0136 84.9294L44.6135 87.0156L40.1204 60.2687L44.6572 52.4106L51.4894 58.1646L56.0136 84.9294Z" fill="#FAE58B"/>
<path d="M58.9691 49.2286L49.9956 49.2654L51.489 58.1646L72.0295 75.4938L79.5097 66.5579L58.9691 49.2286Z" fill="#FAE58B"/>
<path d="M86.0005 37.4419L59.0123 37.5975L52.1066 43.4567L58.9388 49.2106L85.8959 49.0371L86.0005 37.4419Z" fill="#FAE58B"/>
<path d="M79.828 19.9925L59.0433 37.6154L50.0515 37.6838L51.6729 28.7736L72.4576 11.1507L79.828 19.9925Z" fill="#FAE58B"/>
<path d="M51.6724 28.7736L44.7667 34.6328L40.33 26.8115L45.1995 1.07048e-06L56.5419 1.96204L51.6724 28.7736Z" fill="#FAE58B"/>
<path d="M40.3301 26.8115L27.0018 3.37926L16.9813 9.24953L30.3096 32.6818L38.7087 35.7217L40.3301 26.8115Z" fill="#FAE58B"/>
<path d="M30.3096 32.6819L5.03175 23.5579L1.03307 34.5038L26.342 43.6458L34.7956 40.4896L30.3096 32.6819Z" fill="#FAE58B"/>
<path d="M26.3107 43.6278L0.900628 53.1101L4.76291 64.0081L30.173 54.5258L34.7098 46.6677L26.3107 43.6278Z" fill="#FAE58B"/>
</svg>
